<svg width="336" height="316" viewBox="0 0 336 316" fill="none" xmlns="http://www.w3.org/2000/svg">
<path d="M0 316H336V-4.10288e-06H0V316Z" fill="black"/>
<mask id="mask0_3215_85" style="mask-type:luminance" maskUnits="userSpaceOnUse" x="0" y="0" width="336" height="316">
<path d="M0 9.70999e-06H336V316H0V9.70999e-06Z" fill="white"/>
</mask>
<g mask="url(#mask0_3215_85)">
<path d="M45.652 84.7568H87.481V91.0148H45.652V186.859C45.652 198.385 47.621 206.619 51.563 211.559C53.642 214.305 56.377 216.446 59.768 217.982C63.16 219.521 66.826 220.288 70.766 220.288C75.691 220.288 79.795 219.274 83.078 217.241C86.361 215.211 89.972 211.506 93.911 206.126L96.374 208.266C92.751 214.853 87.671 219.74 81.141 222.923C74.608 226.105 66.456 227.698 56.686 227.698C43.73 227.698 34.289 225.172 28.361 220.123C25.175 217.488 23.091 214.334 22.103 210.654C21.115 206.977 20.621 200.361 20.621 190.811V91.0148H3V88.3798C10.135 86.0738 16.728 81.6278 22.777 75.0408C26.421 70.9808 29.349 66.9448 31.559 62.9368C33.77 58.9308 35.869 53.7428 37.861 47.3738L39.518 41.9408H45.652V84.7568Z" fill="white"/>
<path d="M188.331 193.61L191.624 194.762C187.78 206.401 181.907 214.799 174.003 219.959C166.099 225.118 155.229 227.698 141.397 227.698C119.22 227.698 101.817 221.111 89.1932 207.937C76.8962 194.984 70.7492 178.624 70.7492 158.862C70.7492 149.203 72.4502 139.652 75.8542 130.208C79.2562 120.768 83.9232 112.698 89.8522 106C96.5472 98.3178 104.755 92.4427 114.472 88.3797C124.188 84.3187 134.81 82.2858 146.337 82.2858C162.255 82.2858 174.716 85.8557 183.72 92.9897C189.208 97.3827 191.954 102.213 191.954 107.483C191.954 110.997 190.8 113.934 188.495 116.293C186.19 118.655 183.39 119.833 180.097 119.833C172.958 119.833 167.688 114.62 164.286 104.189C162.753 99.3598 161.52 96.0657 160.589 94.3087C159.657 92.5537 158.317 91.0147 156.567 89.6967C153.171 87.1727 149.011 85.9088 144.083 85.9088C137.62 85.9088 131.651 87.7208 126.179 91.3438C121.36 94.5287 117.282 98.5077 113.942 103.283C110.602 108.059 107.671 114.069 105.152 121.316C101.318 132.405 99.4032 143.275 99.4032 153.922C99.4032 163.695 101.156 173.246 104.663 182.576C108.167 191.909 112.935 199.703 118.964 205.961C128.388 215.841 139.456 220.782 152.167 220.782C162.686 220.782 171.399 217.434 178.304 210.736C181.808 207.224 185.149 201.514 188.331 193.61Z" fill="white"/>
<path d="M150.692 220.743C138.645 220.347 128.102 215.428 119.072 205.961C113.043 199.703 108.276 191.909 104.771 182.576C101.264 173.246 99.5124 163.695 99.5124 153.922C99.5124 143.274 101.426 132.405 105.26 121.316C107.779 114.069 110.71 108.059 114.051 103.283C117.391 98.5079 121.469 94.5289 126.287 91.3439C131.277 88.0399 136.684 86.2599 142.498 85.9689C141.904 85.9289 141.298 85.9089 140.679 85.9089C134.216 85.9089 128.248 87.7209 122.775 91.3439C117.957 94.5289 113.878 98.5079 110.539 103.283C107.198 108.059 104.267 114.069 101.748 121.316C97.9144 132.405 96.0004 143.274 96.0004 153.922C96.0004 163.695 97.7524 173.246 101.259 182.576C104.764 191.909 109.531 199.703 115.56 205.961C124.984 215.841 136.052 220.782 148.763 220.782C149.413 220.782 150.056 220.769 150.692 220.743Z" fill="#D1D3D4"/>
<path d="M214.251 129.3C214.251 141.134 216.739 150.776 221.718 158.227C226.697 165.679 233.073 169.403 240.844 169.403C248.723 169.403 254.85 165.704 259.229 158.31C263.606 150.914 265.796 140.64 265.796 127.491C265.796 113.905 262.949 103.06 257.261 94.9488C253.1 88.9228 247.737 85.9088 241.174 85.9088C233.292 85.9088 226.944 89.8548 222.13 97.7428C219.722 101.688 217.807 106.51 216.384 112.207C214.961 117.904 214.251 123.604 214.251 129.3ZM221.332 238.732L218.368 239.555C216.5 236.48 214.634 234.34 212.769 233.133C210.9 231.924 208.595 231.321 205.853 231.321C201.241 231.321 197.48 233.076 194.571 236.591C191.661 240.103 190.208 244.66 190.208 250.259C190.208 259.152 194.654 266.452 203.547 272.162C212.439 277.869 223.803 280.725 237.636 280.725C252.346 280.725 264.231 277.568 273.288 271.257C282.346 264.942 286.875 256.736 286.875 246.636C286.875 238.51 283.854 232.281 277.817 227.945C271.778 223.61 263.161 221.44 251.963 221.44H225.778C215.018 221.44 206.347 218.909 199.759 213.842C192.95 208.557 189.549 202.221 189.549 194.842C189.549 187.026 193.172 180.858 200.418 176.342C204.148 174.139 210.957 171.772 220.838 169.238C211.286 164.856 203.876 159.076 198.606 151.898C193.337 144.721 190.702 136.803 190.702 128.145C190.702 117.078 194.821 107.215 203.061 98.5588C207.893 93.4098 213.605 89.4108 220.197 86.5608C226.787 83.7118 233.544 82.2858 240.466 82.2858C251.011 82.2858 261.773 86.0208 272.761 93.4848C277.933 89.4248 282.585 86.5418 286.713 84.8388C290.84 83.1388 295.324 82.2858 300.167 82.2858C305.558 82.2858 309.904 83.4398 313.208 85.7448C317.171 88.6008 319.151 92.1128 319.151 96.2838C319.151 98.8118 318.375 100.924 316.823 102.624C315.272 104.328 313.334 105.177 311.008 105.177C307.462 105.177 304.248 103.312 301.366 99.5778L297.589 94.6378C295.508 92.0028 292.551 90.6858 288.72 90.6858C284.669 90.6858 280.398 92.7178 275.91 96.7788C284.865 107.648 289.345 118.846 289.345 130.373C289.345 144.757 282.958 156.119 270.19 164.462C263.804 168.635 256.924 171.435 249.549 172.861C247.347 173.19 240.357 173.74 228.578 174.507C212.439 175.495 204.37 179.998 204.37 188.011C204.37 195.038 211.243 198.55 224.988 198.55H252.202C261.769 198.55 269.851 199.402 276.448 201.102C283.046 202.806 288.817 205.467 293.768 209.09C303.442 216.227 308.283 226.27 308.283 239.226C308.283 253.497 302.676 264.64 291.465 272.656C279.922 280.889 262.991 285.007 240.677 285.007C216.711 285.007 199.729 280.175 189.727 270.515C183.351 264.258 180.162 256.461 180.162 247.131C180.162 239.774 182.522 233.545 187.243 228.439C191.963 223.335 197.727 220.782 204.535 220.782C209.476 220.782 213.51 222.264 216.639 225.228C219.768 228.192 221.332 232.088 221.332 236.921V238.732Z" fill="white"/>
<path d="M201.433 272.162C210.326 277.869 221.689 280.725 235.522 280.725C236.102 280.725 236.671 280.712 237.243 280.702C224.22 280.464 213.45 277.62 204.945 272.162C196.053 266.452 191.606 259.152 191.606 250.26C191.606 244.66 193.059 240.103 195.97 236.591C198.498 233.535 201.673 231.813 205.489 231.415C204.926 231.356 204.345 231.321 203.739 231.321C199.127 231.321 195.366 233.076 192.457 236.591C189.547 240.103 188.094 244.66 188.094 250.26C188.094 259.152 192.54 266.452 201.433 272.162Z" fill="#D1D3D4"/>
<path d="M223.528 97.7431C227.969 90.4651 233.719 86.5521 240.771 85.9881C240.209 85.9411 239.641 85.9091 239.06 85.9091C231.178 85.9091 224.83 89.8541 220.016 97.7431C217.608 101.687 215.693 106.51 214.27 112.207C212.847 117.903 212.137 123.603 212.137 129.3C212.137 141.134 214.625 150.775 219.604 158.226C224.583 165.679 230.959 169.402 238.73 169.402C239.33 169.402 239.917 169.373 240.497 169.33C233.513 168.807 227.717 165.112 223.116 158.226C218.137 150.775 215.649 141.134 215.649 129.3C215.649 123.603 216.359 117.903 217.782 112.207C219.205 106.51 221.12 101.687 223.528 97.7431Z" fill="#D1D3D4"/>
<path d="M64.0638 219.457C62.2308 219.155 60.4928 218.448 58.8528 217.323C56.6088 215.787 54.7988 213.646 53.4238 210.9C50.8148 205.96 49.5128 197.726 49.5128 186.2V90.9717H45.2518V186.2C45.2518 197.726 46.5548 205.96 49.1628 210.9C50.5388 213.646 52.3488 215.787 54.5928 217.323C56.8368 218.862 59.2628 219.629 61.8698 219.629C62.6318 219.629 63.3608 219.568 64.0638 219.457Z" fill="#D1D3D4"/>
<path d="M45.2518 84.7568H49.5128V41.9408H45.4538L45.2518 42.9398V84.7568Z" fill="#D1D3D4"/>
<path d="M20.5817 288.03V276.646H21.2257C21.9747 279.435 22.9107 281.661 24.0347 283.324C26.0937 286.354 28.5017 287.869 31.2567 287.869C32.9417 287.869 34.4007 287.36 35.6307 286.341C36.9687 285.215 37.6377 283.619 37.6377 281.553C37.6377 279.864 37.1557 278.39 36.1927 277.129C35.6577 276.459 34.9817 275.842 34.1657 275.279C33.3507 274.716 31.9787 273.925 30.0527 272.906C26.6817 271.109 24.4347 269.607 23.3117 268.4C21.7067 266.684 20.9037 264.7 20.9037 262.447C20.9037 260.034 21.7077 257.956 23.3167 256.213C25.1677 254.228 27.6217 253.236 30.6787 253.236C32.0457 253.236 33.3197 253.477 34.4997 253.96L35.8677 254.563C36.2957 254.724 36.6717 254.804 36.9937 254.804C37.5027 254.804 37.9857 254.402 38.4417 253.597H39.2467L39.6887 262.728H38.8437C38.5497 261.441 38.2357 260.41 37.9007 259.632C37.5667 258.854 37.0927 258.103 36.4777 257.379C35.6487 256.36 34.6857 255.562 33.5897 254.985C32.4937 254.409 31.4107 254.121 30.3407 254.121C28.8427 254.121 27.5657 254.664 26.5097 255.75C25.4547 256.836 24.9267 258.17 24.9267 259.752C24.9267 261.066 25.4007 262.253 26.3517 263.312C27.3007 264.372 28.7657 265.343 30.7457 266.228L34.9987 268.159C37.5407 269.312 39.4407 270.747 40.6987 272.463C41.9557 274.179 42.5847 276.204 42.5847 278.537C42.5847 281.352 41.6727 283.685 39.8497 285.536C37.7577 287.681 35.0757 288.754 31.8047 288.754C30.0347 288.754 28.2377 288.405 26.4147 287.708C25.2337 287.253 24.5237 286.991 24.2827 286.924C24.0407 286.857 23.7327 286.823 23.3577 286.823C22.4187 286.823 21.7077 287.225 21.2257 288.03H20.5817Z" fill="white"/>
<path d="M51.1691 253.838H61.3861V255.367H51.1691V278.777C51.1691 281.594 51.6491 283.605 52.6121 284.812C53.1201 285.483 53.7891 286.005 54.6171 286.38C55.4451 286.756 56.3411 286.943 57.3031 286.943C58.5061 286.943 59.5081 286.695 60.3111 286.199C61.1121 285.703 61.9941 284.798 62.9571 283.484L63.5581 284.007C62.6731 285.616 61.4331 286.81 59.8371 287.587C58.2411 288.364 56.2511 288.753 53.8641 288.753C50.6991 288.753 48.3931 288.136 46.9451 286.903C46.1671 286.26 45.6581 285.489 45.4171 284.59C45.1751 283.692 45.0551 282.076 45.0551 279.743V255.367H40.7511V254.724C42.4941 254.16 44.1041 253.074 45.5821 251.465C46.4711 250.474 47.1871 249.487 47.7271 248.509C48.2661 247.53 48.7791 246.263 49.2661 244.707L49.6701 243.38H51.1691V253.838Z" fill="white"/>
<path d="M84.8933 288.753C84.5443 287.12 84.3703 285.446 84.3703 283.732C81.0183 287.08 77.0493 288.753 72.4633 288.753C69.1113 288.753 66.4163 287.937 64.3783 286.303C62.3933 284.695 61.4023 282.419 61.4023 279.472V265.491L61.3623 262.437C61.3623 260.616 61.2543 259.291 61.0403 258.46C60.8253 257.63 60.4233 256.92 59.8333 256.33C59.0553 255.607 57.6613 255.071 55.6503 254.724V253.838H67.4763V274.232C67.4763 277.102 67.5763 279.227 67.7773 280.607C67.9773 281.989 68.3453 283.122 68.8803 284.007C69.4693 284.919 70.3113 285.636 71.4083 286.159C72.5053 286.682 73.7363 286.943 75.1003 286.943C76.5993 286.943 78.0023 286.649 79.3143 286.06C80.6253 285.471 81.6543 284.667 82.4033 283.649C83.1793 282.605 83.6943 281.399 83.9483 280.033C84.2023 278.668 84.3303 276.418 84.3303 273.284V265.41L84.2893 262.437C84.2893 260.615 84.1893 259.29 83.9883 258.46C83.7873 257.63 83.3783 256.92 82.7613 256.33C82.0103 255.607 80.6153 255.071 78.5783 254.724V253.838H90.4043V275.653C90.4043 278.412 90.4773 280.348 90.6253 281.459C90.7723 282.57 91.0603 283.474 91.4903 284.17C91.9733 284.921 92.5363 285.463 93.1793 285.798C93.8233 286.133 94.7483 286.34 95.9553 286.42V287.265L84.8933 288.753Z" fill="white"/>
<path d="M120.548 270.653C120.548 266.925 120.388 264.131 120.067 262.266C119.747 260.403 119.172 258.881 118.344 257.701C117.623 256.681 116.655 255.864 115.44 255.247C114.224 254.631 112.976 254.322 111.694 254.322C108.835 254.322 106.364 255.663 104.281 258.344C103.026 259.953 102.044 261.871 101.336 264.096C100.629 266.323 100.275 268.615 100.275 270.974C100.275 273.281 100.609 275.54 101.276 277.753C101.944 279.965 102.852 281.862 104.001 283.444C106.004 286.179 108.462 287.548 111.373 287.548C112.762 287.548 114.084 287.199 115.34 286.502C116.594 285.804 117.61 284.839 118.384 283.605C119.185 282.318 119.747 280.729 120.067 278.839C120.388 276.948 120.548 274.219 120.548 270.653ZM121.112 289.397C120.844 288.058 120.71 286.637 120.71 285.133C118.728 286.421 116.86 287.346 115.107 287.909C113.353 288.472 111.472 288.754 109.463 288.754C105.393 288.754 101.911 287.534 99.0205 285.093C97.1725 283.539 95.7525 281.588 94.7615 279.241C93.7715 276.894 93.2765 274.327 93.2765 271.538C93.2765 268.589 93.8115 265.86 94.8825 263.352C95.9535 260.845 97.4535 258.76 99.3815 257.097C102.433 254.523 106.061 253.236 110.265 253.236C112.3 253.236 114.041 253.531 115.487 254.121C116.933 254.711 118.62 255.784 120.548 257.339V242.466C120.548 239.554 120.062 237.457 119.09 236.174C118.119 234.891 116.513 234.25 114.273 234.25V233.284L126.622 231.715V278.268C126.622 281.294 127.105 283.449 128.07 284.735C129.035 286.02 130.631 286.663 132.857 286.663V287.668L121.112 289.397Z" fill="white"/>
<path d="M137.72 238.794C136.668 238.794 135.799 238.459 135.111 237.789C134.423 237.119 134.079 236.274 134.079 235.255C134.079 234.263 134.429 233.424 135.131 232.74C135.832 232.057 136.695 231.715 137.72 231.715C138.744 231.715 139.607 232.057 140.309 232.74C141.01 233.424 141.36 234.263 141.36 235.255C141.36 236.274 141.016 237.119 140.329 237.789C139.641 238.459 138.771 238.794 137.72 238.794ZM129.333 254.683L140.918 253.235V276.402L140.958 279.449C140.958 281.266 141.065 282.595 141.28 283.437C141.494 284.279 141.909 284.981 142.527 285.541C143.277 286.263 144.658 286.811 146.67 287.185V288.029H128.89V287.185C130.499 286.972 131.652 286.672 132.35 286.284C133.047 285.898 133.61 285.237 134.039 284.303C134.334 283.69 134.542 282.763 134.663 281.522C134.783 280.281 134.844 278.486 134.844 276.139V266.253C134.844 263.506 134.777 261.578 134.643 260.471C134.508 259.363 134.213 258.463 133.758 257.769C133.302 257.023 132.752 256.481 132.109 256.148C131.465 255.815 130.54 255.608 129.333 255.527V254.683Z" fill="white"/>
<path d="M151.352 270.593C151.352 275.254 152.398 279.204 154.49 282.445C156.85 286.061 159.732 287.868 163.139 287.868C164.586 287.868 165.994 287.467 167.362 286.663C168.729 285.861 169.909 284.736 170.901 283.288C171.947 281.789 172.792 279.907 173.435 277.644C174.079 275.381 174.401 273.191 174.401 271.074C174.401 268.879 174.06 266.662 173.375 264.426C172.691 262.19 171.772 260.268 170.62 258.659C168.421 255.634 165.726 254.12 162.535 254.12C159.504 254.12 156.89 255.714 154.691 258.902C152.465 262.089 151.352 265.986 151.352 270.593ZM144.031 271.055C144.031 266.71 145.64 262.836 148.858 259.43C152.773 255.3 157.453 253.236 162.896 253.236C168.341 253.236 173.007 255.3 176.895 259.43C180.113 262.863 181.722 266.75 181.722 271.095C181.722 275.386 180.193 279.207 177.137 282.559C173.382 286.689 168.636 288.753 162.896 288.753C157.158 288.753 152.398 286.689 148.617 282.559C147.142 280.95 146.009 279.154 145.218 277.169C144.427 275.185 144.031 273.147 144.031 271.055Z" fill="white"/>
<path d="M188.094 278.979C189.435 278.979 190.58 279.456 191.533 280.407C192.485 281.36 192.961 282.519 192.961 283.886C192.961 285.228 192.485 286.375 191.533 287.326C190.58 288.278 189.435 288.753 188.094 288.753C186.752 288.753 185.606 288.278 184.655 287.326C183.702 286.375 183.227 285.228 183.227 283.886C183.227 282.519 183.702 281.36 184.655 280.407C185.606 279.456 186.752 278.979 188.094 278.979Z" fill="white"/>
<path d="M38.9333 297.441H42.0633V297.909H38.9333V305.082C38.9333 305.944 39.0803 306.56 39.3753 306.929C39.5313 307.135 39.7363 307.295 39.9903 307.411C40.2443 307.526 40.5173 307.583 40.8123 307.583C41.1813 307.583 41.4883 307.507 41.7343 307.355C41.9793 307.203 42.2503 306.925 42.5443 306.523L42.7293 306.683C42.4583 307.176 42.0783 307.542 41.5893 307.78C41.1003 308.018 40.4903 308.137 39.7593 308.137C38.7893 308.137 38.0833 307.949 37.6393 307.571C37.4013 307.374 37.2453 307.137 37.1713 306.862C37.0973 306.587 37.0603 306.091 37.0603 305.377V297.909H35.7413V297.712C36.2753 297.539 36.7683 297.207 37.2213 296.713C37.4943 296.41 37.7133 296.108 37.8783 295.807C38.0443 295.507 38.2013 295.12 38.3503 294.643L38.4743 294.236H38.9333V297.441Z" fill="white"/>
<path d="M44.0773 290.601V299.04C44.3653 298.688 44.6193 298.413 44.8413 298.216C45.0633 298.019 45.3303 297.847 45.6423 297.699C46.2423 297.404 46.9243 297.255 47.6883 297.255C48.6573 297.255 49.4583 297.449 50.0913 297.834C50.5433 298.122 50.8533 298.472 51.0213 298.886C51.1903 299.301 51.2743 299.922 51.2743 300.751V304.345L51.2863 305.281C51.2863 305.839 51.3193 306.247 51.3853 306.505C51.4513 306.764 51.5783 306.98 51.7673 307.152C51.9973 307.373 52.4203 307.541 53.0363 307.657V307.915H47.5943V307.657C48.0283 307.599 48.3373 307.53 48.5213 307.448C48.7063 307.366 48.8723 307.226 49.0203 307.029C49.1673 306.824 49.2693 306.544 49.3273 306.192C49.3843 305.839 49.4133 305.318 49.4133 304.628V300.727C49.4133 300.136 49.3683 299.668 49.2783 299.324C49.1873 298.979 49.0363 298.68 48.8233 298.425C48.4053 297.941 47.8153 297.7 47.0523 297.7C45.0693 297.7 44.0773 299.267 44.0773 302.401V304.371L44.0893 305.281C44.0893 305.839 44.1223 306.247 44.1883 306.506C44.2533 306.764 44.3803 306.98 44.5693 307.152C44.7983 307.373 45.2213 307.541 45.8353 307.657V307.915H40.3923V307.657C40.8853 307.591 41.2383 307.499 41.4523 307.38C41.6653 307.261 41.8383 307.058 41.9703 306.771C42.0603 306.582 42.1243 306.297 42.1603 305.915C42.1983 305.534 42.2163 304.983 42.2163 304.26V294.601C42.2163 293.764 42.1963 293.173 42.1553 292.829C42.1133 292.485 42.0233 292.205 41.8833 291.993C41.7443 291.763 41.5753 291.599 41.3783 291.5C41.1813 291.402 40.8973 291.34 40.5283 291.316V291.044L44.0773 290.601Z" fill="white"/>
<path d="M59.7087 300.731C59.6517 299.91 59.5007 299.277 59.2547 298.833C59.0337 298.43 58.7397 298.112 58.3717 297.877C58.0037 297.644 57.6107 297.527 57.1937 297.527C56.4907 297.527 55.8757 297.831 55.3477 298.439C54.8197 299.046 54.5077 299.811 54.4097 300.731H59.7087ZM54.3357 301.211C54.3027 301.614 54.2867 301.906 54.2867 302.086C54.2867 302.801 54.3907 303.5 54.5997 304.181C54.8087 304.864 55.0927 305.43 55.4537 305.882C55.8217 306.342 56.2777 306.704 56.8227 306.966C57.3667 307.23 57.9377 307.361 58.5357 307.361C58.9787 307.361 59.3977 307.287 59.7947 307.139C60.1917 306.992 60.5207 306.786 60.7837 306.523C61.0787 306.236 61.3327 305.776 61.5447 305.143L61.8037 305.229C61.5897 306.19 61.1317 306.916 60.4297 307.404C59.7277 307.893 58.7927 308.137 57.6257 308.137C56.6157 308.137 55.7487 307.977 55.0257 307.657C54.3027 307.336 53.6907 306.843 53.1897 306.178C52.4917 305.25 52.1427 304.108 52.1427 302.752C52.1427 300.904 52.8037 299.454 54.1257 298.402C55.0877 297.637 56.1847 297.255 57.4167 297.255C58.0737 297.255 58.6817 297.373 59.2407 297.607C59.7987 297.841 60.2717 298.18 60.6577 298.624C61.2577 299.314 61.5577 300.176 61.5577 301.211H54.3357Z" fill="white"/>
<path d="M74.8395 305.586L75.0865 305.672C74.7985 306.543 74.3595 307.172 73.7675 307.558C73.1755 307.943 72.3625 308.137 71.3275 308.137C69.6675 308.137 68.3655 307.644 67.4205 306.658C66.5005 305.689 66.0405 304.465 66.0405 302.985C66.0405 302.263 66.1675 301.548 66.4225 300.841C66.6765 300.135 67.0265 299.531 67.4695 299.029C67.9705 298.455 68.5855 298.015 69.3125 297.711C70.0395 297.407 70.8345 297.255 71.6965 297.255C72.8885 297.255 73.8205 297.523 74.4945 298.056C74.9055 298.385 75.1105 298.746 75.1105 299.141C75.1105 299.403 75.0245 299.623 74.8515 299.8C74.6795 299.977 74.4695 300.065 74.2235 300.065C73.6895 300.065 73.2955 299.675 73.0405 298.895C72.9255 298.532 72.8335 298.286 72.7635 298.154C72.6935 298.024 72.5935 297.908 72.4625 297.81C72.2085 297.621 71.8975 297.526 71.5285 297.526C71.0445 297.526 70.5985 297.662 70.1885 297.933C69.8275 298.171 69.5225 298.469 69.2725 298.826C69.0225 299.184 68.8035 299.634 68.6145 300.176C68.3285 301.006 68.1845 301.819 68.1845 302.616C68.1845 303.348 68.3165 304.062 68.5785 304.76C68.8405 305.459 69.1975 306.042 69.6485 306.51C70.3535 307.25 71.1825 307.619 72.1335 307.619C72.9205 307.619 73.5725 307.369 74.0895 306.867C74.3515 306.605 74.6015 306.178 74.8395 305.586Z" fill="white"/>
<path d="M80.6984 301.865C80.2564 302.234 79.7684 302.559 79.2364 302.839C78.6384 303.159 78.2244 303.401 77.9954 303.565C77.7664 303.73 77.5574 303.928 77.3694 304.157C76.9844 304.634 76.7914 305.188 76.7914 305.821C76.7914 306.363 76.9414 306.811 77.2404 307.164C77.5384 307.517 77.9174 307.694 78.3764 307.694C78.7784 307.694 79.1564 307.569 79.5124 307.318C79.8684 307.067 80.1374 306.733 80.3174 306.313C80.5714 305.763 80.6984 304.967 80.6984 303.923V301.865ZM84.7774 306.72L84.9874 306.844C84.6914 307.706 84.0134 308.137 82.9534 308.137C82.3694 308.137 81.8844 307.994 81.4974 307.706C81.2414 307.517 80.9784 307.188 80.7074 306.72C80.1564 307.214 79.7404 307.538 79.4604 307.694C78.9264 307.99 78.3044 308.137 77.5974 308.137C76.6924 308.137 75.9744 307.92 75.4434 307.484C74.9124 307.05 74.6474 306.462 74.6474 305.722C74.6474 305.041 74.8654 304.469 75.3004 304.01C75.5474 303.755 75.8304 303.552 76.1514 303.399C76.4714 303.247 76.9354 303.094 77.5434 302.937C78.2584 302.757 78.7854 302.604 79.1274 302.481C79.4684 302.358 79.7534 302.21 79.9834 302.038C80.2464 301.848 80.4274 301.627 80.5254 301.372C80.6244 301.117 80.6734 300.764 80.6734 300.312C80.6734 299.351 80.4924 298.648 80.1314 298.205C79.9674 298 79.7554 297.835 79.4964 297.712C79.2384 297.589 78.9694 297.527 78.6894 297.527C78.3524 297.527 78.0524 297.613 77.7894 297.786C77.5274 297.959 77.3294 298.197 77.1984 298.501L76.8904 299.216C76.7254 299.601 76.4304 299.795 76.0034 299.795C75.7234 299.795 75.4894 299.702 75.3004 299.517C75.1114 299.333 75.0174 299.1 75.0174 298.821C75.0174 298.402 75.3134 298.049 75.9064 297.761C76.2264 297.613 76.6234 297.492 77.0974 297.397C77.5704 297.303 78.0334 297.256 78.4854 297.256C78.9954 297.256 79.5264 297.322 80.0784 297.453C80.6294 297.585 81.0904 297.753 81.4604 297.959C81.9954 298.262 82.3284 298.657 82.4604 299.141C82.5264 299.387 82.5594 299.802 82.5594 300.386V304.946C82.5594 305.719 82.5924 306.244 82.6574 306.523C82.7974 307.106 83.1344 307.398 83.6684 307.398C83.9234 307.398 84.1224 307.353 84.2654 307.262C84.4094 307.173 84.5804 306.992 84.7774 306.72Z" fill="white"/>
<path d="M86.6301 297.255C86.7781 297.83 86.8731 298.401 86.9141 298.968C87.4321 298.418 88.0131 297.994 88.6581 297.699C89.3031 297.403 89.9751 297.255 90.6731 297.255C91.4451 297.255 92.0901 297.452 92.6081 297.847C92.9201 298.085 93.2771 298.5 93.6801 299.092C94.3041 298.459 94.9331 297.994 95.5661 297.699C96.1981 297.403 96.8801 297.255 97.6111 297.255C98.5971 297.255 99.4001 297.524 100.021 298.062C100.641 298.599 100.951 299.303 100.951 300.172V304.345L100.963 305.28C100.963 305.839 100.996 306.247 101.062 306.505C101.128 306.764 101.251 306.98 101.432 307.151C101.67 307.373 102.097 307.541 102.713 307.656V307.915H97.2661V307.656C97.7591 307.591 98.1101 307.498 98.3201 307.379C98.5291 307.261 98.7041 307.058 98.8431 306.771C98.9341 306.581 98.9981 306.297 99.0351 305.915C99.0711 305.533 99.0901 304.985 99.0901 304.272V301.921C99.0901 301.01 99.0611 300.346 99.0041 299.927C98.9461 299.508 98.8361 299.151 98.6721 298.856C98.2871 298.158 97.6231 297.81 96.6801 297.81C95.6641 297.81 94.9261 298.188 94.4671 298.942C94.0661 299.59 93.8651 300.6 93.8651 301.97V304.346L93.8771 305.28C93.8771 305.839 93.9101 306.247 93.9761 306.506C94.0421 306.764 94.1651 306.98 94.3451 307.151C94.5751 307.373 95.0031 307.541 95.6271 307.656V307.915H90.1801V307.656C90.6731 307.591 91.0241 307.498 91.2341 307.379C91.4431 307.261 91.6181 307.058 91.7571 306.771C91.8481 306.581 91.9121 306.297 91.9481 305.915C91.9851 305.533 92.0041 304.985 92.0041 304.272V301.994C92.0041 301.034 91.9731 300.331 91.9121 299.884C91.8501 299.437 91.7341 299.073 91.5611 298.794C91.3811 298.499 91.1271 298.268 90.7991 298.099C90.4711 297.931 90.1021 297.847 89.6931 297.847C89.2251 297.847 88.7871 297.958 88.3771 298.179C87.9671 298.401 87.6431 298.7 87.4061 299.077C87.1851 299.414 87.0271 299.818 86.9321 300.29C86.8381 300.762 86.7911 301.371 86.7911 302.117V304.37L86.8031 305.28C86.8031 305.839 86.8361 306.247 86.9021 306.506C86.9671 306.764 87.0951 306.98 87.2841 307.151C87.5141 307.373 87.9371 307.541 88.5531 307.656V307.915H83.1061V307.656C83.5991 307.591 83.9521 307.499 84.1661 307.38C84.3801 307.261 84.5521 307.059 84.6841 306.772C84.7741 306.583 84.8381 306.298 84.8751 305.917C84.9121 305.536 84.9301 304.984 84.9301 304.264V301.228C84.9301 300.383 84.9101 299.791 84.8691 299.451C84.8271 299.111 84.7371 298.834 84.5971 298.621C84.4581 298.392 84.2891 298.226 84.0921 298.123C83.8951 298.022 83.6111 297.958 83.2421 297.933V297.674L86.6301 297.255Z" fill="white"/>
<path d="M109.385 300.731C109.328 299.91 109.177 299.277 108.931 298.833C108.71 298.43 108.416 298.112 108.048 297.877C107.68 297.644 107.287 297.527 106.87 297.527C106.167 297.527 105.552 297.831 105.024 298.439C104.496 299.046 104.184 299.811 104.086 300.731H109.385ZM104.012 301.211C103.979 301.614 103.963 301.906 103.963 302.086C103.963 302.801 104.067 303.5 104.276 304.181C104.485 304.864 104.769 305.43 105.13 305.882C105.498 306.342 105.954 306.704 106.499 306.966C107.043 307.23 107.614 307.361 108.212 307.361C108.655 307.361 109.074 307.287 109.471 307.139C109.868 306.992 110.197 306.786 110.46 306.523C110.755 306.236 111.009 305.776 111.221 305.143L111.48 305.229C111.266 306.19 110.808 306.916 110.106 307.404C109.404 307.893 108.469 308.137 107.302 308.137C106.292 308.137 105.425 307.977 104.702 307.657C103.979 307.336 103.367 306.843 102.866 306.178C102.168 305.25 101.819 304.108 101.819 302.752C101.819 300.904 102.48 299.454 103.802 298.402C104.764 297.637 105.861 297.255 107.093 297.255C107.75 297.255 108.358 297.373 108.917 297.607C109.475 297.841 109.948 298.18 110.334 298.624C110.934 299.314 111.234 300.176 111.234 301.211H104.012Z" fill="white"/>
<path d="M114.406 299.152C114.701 298.634 115.034 298.245 115.404 297.982C116.086 297.498 116.863 297.256 117.733 297.256C118.267 297.256 118.674 297.375 118.953 297.613C119.208 297.826 119.335 298.089 119.335 298.401C119.335 298.631 119.26 298.82 119.107 298.967C118.955 299.115 118.76 299.189 118.522 299.189C118.242 299.189 118 299.074 117.795 298.844L117.413 298.425C117.109 298.106 116.751 297.946 116.341 297.946C115.782 297.946 115.346 298.307 115.034 299.029C114.722 299.751 114.566 300.756 114.566 302.045V304.346L114.578 305.282C114.578 305.839 114.611 306.248 114.677 306.506C114.742 306.764 114.87 306.98 115.059 307.152C115.289 307.374 115.712 307.542 116.328 307.657V307.916H110.881V307.657C111.374 307.591 111.727 307.5 111.941 307.381C112.155 307.262 112.327 307.06 112.459 306.774C112.549 306.586 112.613 306.302 112.65 305.922C112.687 305.542 112.705 304.992 112.705 304.273V301.244C112.705 300.402 112.685 299.812 112.644 299.472C112.602 299.133 112.512 298.857 112.372 298.645C112.233 298.416 112.064 298.251 111.867 298.148C111.67 298.047 111.386 297.983 111.017 297.959V297.7L114.194 297.256C114.335 297.993 114.406 298.626 114.406 299.152Z" fill="white"/>
<path d="M124.233 301.865C123.791 302.234 123.303 302.559 122.771 302.839C122.173 303.159 121.759 303.401 121.53 303.565C121.301 303.73 121.092 303.928 120.904 304.157C120.519 304.634 120.326 305.188 120.326 305.821C120.326 306.363 120.476 306.811 120.775 307.164C121.073 307.517 121.452 307.694 121.911 307.694C122.313 307.694 122.691 307.569 123.047 307.318C123.403 307.067 123.672 306.733 123.852 306.313C124.106 305.763 124.233 304.967 124.233 303.923V301.865ZM128.312 306.72L128.522 306.844C128.226 307.706 127.548 308.137 126.488 308.137C125.904 308.137 125.419 307.994 125.032 307.706C124.776 307.517 124.513 307.188 124.242 306.72C123.691 307.214 123.275 307.538 122.995 307.694C122.461 307.99 121.839 308.137 121.132 308.137C120.227 308.137 119.509 307.92 118.978 307.484C118.447 307.05 118.182 306.462 118.182 305.722C118.182 305.041 118.4 304.469 118.835 304.01C119.082 303.755 119.365 303.552 119.686 303.399C120.006 303.247 120.47 303.094 121.078 302.937C121.793 302.757 122.32 302.604 122.662 302.481C123.003 302.358 123.288 302.21 123.518 302.038C123.781 301.848 123.962 301.627 124.06 301.372C124.159 301.117 124.208 300.764 124.208 300.312C124.208 299.351 124.027 298.648 123.666 298.205C123.502 298 123.29 297.835 123.031 297.712C122.773 297.589 122.504 297.527 122.224 297.527C121.887 297.527 121.587 297.613 121.324 297.786C121.062 297.959 120.864 298.197 120.733 298.501L120.425 299.216C120.26 299.601 119.965 299.795 119.538 299.795C119.258 299.795 119.024 299.702 118.835 299.517C118.646 299.333 118.552 299.1 118.552 298.821C118.552 298.402 118.848 298.049 119.441 297.761C119.761 297.613 120.158 297.492 120.632 297.397C121.105 297.303 121.568 297.256 122.02 297.256C122.53 297.256 123.061 297.322 123.613 297.453C124.164 297.585 124.625 297.753 124.995 297.959C125.53 298.262 125.863 298.657 125.995 299.141C126.061 299.387 126.094 299.802 126.094 300.386V304.946C126.094 305.719 126.127 306.244 126.192 306.523C126.332 307.106 126.669 307.398 127.203 307.398C127.458 307.398 127.657 307.353 127.8 307.262C127.944 307.173 128.115 306.992 128.312 306.72Z" fill="white"/>
<path d="M133.609 300.774C133.609 301.66 133.795 302.381 134.168 302.939C134.54 303.497 135.018 303.775 135.599 303.775C136.189 303.775 136.647 303.499 136.975 302.945C137.302 302.391 137.466 301.623 137.466 300.638C137.466 299.622 137.253 298.81 136.828 298.204C136.516 297.753 136.115 297.527 135.624 297.527C135.034 297.527 134.559 297.822 134.198 298.413C134.018 298.708 133.875 299.068 133.769 299.495C133.662 299.921 133.609 300.347 133.609 300.774ZM134.139 308.963L133.917 309.025C133.777 308.795 133.638 308.634 133.498 308.545C133.358 308.454 133.186 308.409 132.981 308.409C132.635 308.409 132.354 308.54 132.136 308.803C131.919 309.066 131.81 309.407 131.81 309.826C131.81 310.491 132.142 311.038 132.808 311.464C133.473 311.892 134.324 312.106 135.359 312.106C136.46 312.106 137.349 311.87 138.027 311.397C138.705 310.924 139.044 310.31 139.044 309.554C139.044 308.947 138.817 308.48 138.366 308.156C137.914 307.832 137.269 307.67 136.431 307.67H134.472C133.666 307.67 133.017 307.48 132.525 307.1C132.015 306.705 131.76 306.231 131.76 305.678C131.76 305.093 132.031 304.632 132.574 304.295C132.853 304.129 133.362 303.952 134.102 303.762C133.387 303.434 132.833 303.003 132.438 302.464C132.044 301.928 131.847 301.336 131.847 300.687C131.847 299.859 132.155 299.121 132.772 298.473C133.133 298.088 133.561 297.789 134.054 297.576C134.547 297.362 135.053 297.255 135.571 297.255C136.36 297.255 137.165 297.535 137.987 298.093C138.375 297.79 138.723 297.574 139.031 297.447C139.34 297.319 139.676 297.255 140.038 297.255C140.442 297.255 140.767 297.342 141.014 297.514C141.311 297.728 141.459 297.991 141.459 298.303C141.459 298.492 141.401 298.65 141.285 298.778C141.169 298.905 141.024 298.968 140.85 298.968C140.584 298.968 140.344 298.829 140.128 298.549L139.845 298.18C139.69 297.983 139.468 297.884 139.182 297.884C138.879 297.884 138.559 298.037 138.223 298.34C138.893 299.154 139.229 299.992 139.229 300.854C139.229 301.93 138.751 302.781 137.795 303.405C137.317 303.717 136.802 303.927 136.251 304.034C136.086 304.058 135.563 304.099 134.681 304.157C133.473 304.231 132.87 304.568 132.87 305.168C132.87 305.693 133.384 305.957 134.413 305.957H136.449C137.165 305.957 137.77 306.02 138.263 306.147C138.757 306.275 139.189 306.474 139.56 306.745C140.283 307.279 140.646 308.031 140.646 309.001C140.646 310.068 140.226 310.902 139.387 311.502C138.524 312.118 137.256 312.426 135.587 312.426C133.793 312.426 132.522 312.064 131.774 311.341C131.296 310.874 131.058 310.29 131.058 309.591C131.058 309.042 131.234 308.575 131.588 308.193C131.941 307.811 132.372 307.62 132.882 307.62C133.252 307.62 133.553 307.731 133.788 307.953C134.022 308.174 134.139 308.466 134.139 308.828V308.963Z" fill="white"/>
<path d="M148.427 308.137C148.321 307.637 148.267 307.124 148.267 306.599C147.24 307.624 146.024 308.137 144.619 308.137C143.592 308.137 142.766 307.887 142.142 307.386C141.534 306.894 141.23 306.197 141.23 305.293V301.01L141.218 300.074C141.218 299.517 141.185 299.111 141.119 298.856C141.053 298.602 140.93 298.384 140.75 298.203C140.511 297.983 140.084 297.818 139.468 297.711V297.441H143.091V303.689C143.091 304.568 143.122 305.219 143.183 305.642C143.245 306.065 143.357 306.411 143.521 306.683C143.701 306.962 143.96 307.182 144.296 307.342C144.632 307.502 145.009 307.582 145.427 307.582C145.886 307.582 146.316 307.492 146.718 307.312C147.119 307.131 147.435 306.885 147.664 306.574C147.902 306.253 148.06 305.884 148.138 305.465C148.216 305.047 148.255 304.358 148.255 303.398V300.986L148.242 300.074C148.242 299.517 148.212 299.111 148.15 298.856C148.088 298.602 147.963 298.384 147.774 298.203C147.544 297.983 147.116 297.818 146.492 297.711V297.441H150.115V304.123C150.115 304.969 150.138 305.562 150.183 305.903C150.228 306.242 150.317 306.52 150.448 306.733C150.596 306.963 150.769 307.129 150.966 307.232C151.163 307.334 151.447 307.398 151.816 307.422V307.681L148.427 308.137Z" fill="white"/>
<path d="M150.206 297.441H154.988V297.712C154.651 297.761 154.409 297.827 154.261 297.909C153.94 298.089 153.78 298.368 153.78 298.746C153.78 299.074 153.948 299.66 154.283 300.504L156.343 305.784L158.143 301.341C158.586 300.234 158.808 299.451 158.808 298.992C158.808 298.623 158.706 298.329 158.5 298.112C158.294 297.894 157.995 297.761 157.601 297.712V297.441H161.125V297.712C160.772 297.81 160.511 297.913 160.342 298.02C160.174 298.127 160.012 298.295 159.856 298.525C159.618 298.886 159.24 299.696 158.722 300.953L155.148 309.629C154.721 310.664 154.375 311.337 154.113 311.65C153.669 312.168 153.106 312.426 152.424 312.426C151.989 312.426 151.638 312.341 151.371 312.173C151.103 312.004 150.97 311.785 150.97 311.514C150.97 311.3 151.048 311.129 151.204 311.003C151.359 310.876 151.564 310.812 151.818 310.812C152.031 310.812 152.277 310.869 152.555 310.984C152.826 311.09 153 311.157 153.078 311.181C153.155 311.206 153.248 311.218 153.354 311.218C153.862 311.218 154.276 310.835 154.595 310.068L154.976 309.127C155.14 308.731 155.222 308.426 155.222 308.212C155.222 307.908 155.066 307.379 154.755 306.624L152.201 300.481L151.833 299.595C151.611 299.07 151.438 298.697 151.315 298.475C151.192 298.253 151.069 298.093 150.946 297.995C150.74 297.838 150.494 297.745 150.206 297.712V297.441Z" fill="white"/>
<path d="M165.027 302.42C165.437 302.42 165.789 302.566 166.081 302.857C166.372 303.149 166.518 303.504 166.518 303.923C166.518 304.334 166.372 304.686 166.081 304.977C165.789 305.269 165.437 305.414 165.027 305.414C164.616 305.414 164.264 305.269 163.973 304.977C163.681 304.686 163.536 304.334 163.536 303.923C163.536 303.504 163.681 303.149 163.973 302.857C164.264 302.566 164.616 302.42 165.027 302.42Z" fill="white"/>
<path d="M28.7097 302.42C29.1207 302.42 29.4717 302.566 29.7637 302.857C30.0547 303.149 30.2007 303.504 30.2007 303.923C30.2007 304.334 30.0547 304.686 29.7637 304.977C29.4717 305.269 29.1207 305.414 28.7097 305.414C28.2987 305.414 27.9477 305.269 27.6557 304.977C27.3637 304.686 27.2187 304.334 27.2187 303.923C27.2187 303.504 27.3637 303.149 27.6557 302.857C27.9477 302.566 28.2987 302.42 28.7097 302.42Z" fill="white"/>
<path d="M340.754 75.4493C287.553 103.053 285.817 107.455 305.848 163.944C278.244 110.744 273.842 109.007 217.353 129.038C270.553 101.435 272.29 97.0323 252.259 40.5433C279.862 93.7443 284.265 95.4803 340.754 75.4493Z" fill="white"/>
<path d="M262.315 116.294C278.379 116.294 286.872 126.458 300.588 151.833C286.654 110.319 290.121 101.532 328.643 80.7089C287.13 94.6419 278.341 91.1789 257.519 52.6549C271.454 94.1689 267.988 102.956 229.464 123.779C243.633 119.023 253.991 116.294 262.315 116.294ZM304.961 164.405C277.652 111.773 273.572 110.164 217.687 129.981L216.892 128.151C269.526 100.842 271.134 96.7639 251.317 40.8769L253.147 40.0829C280.456 92.7159 284.535 94.3239 340.42 74.5069L341.215 76.3369C288.582 103.646 286.973 107.724 306.791 163.611L304.961 164.405Z" fill="black"/>
<path d="M268.653 7.70203C256.914 13.793 256.531 14.764 260.951 27.228C254.86 15.49 253.889 15.106 241.425 19.526C253.164 13.436 253.547 12.464 249.127 2.86102e-05C255.218 11.739 256.189 12.122 268.653 7.70203Z" fill="#F7941D"/>
<path d="M324.592 142.759C316.421 146.999 316.154 147.675 319.231 156.351C314.991 148.18 314.315 147.913 305.639 150.99C313.81 146.75 314.077 146.074 311 137.398C315.24 145.569 315.916 145.836 324.592 142.759Z" fill="white"/>
</g>
</svg>
